<?xml version="1.0" encoding="UTF-8" standalone="no"?>
<svg width="394.02" xmlns="http://www.w3.org/2000/svg" height="362.4">
 <g stroke="#000">
  <g stroke-linejoin="round" stroke-linecap="round" fill-rule="evenodd">
   <path id="rect3308" fill="#4b3c21" d="m335.08 258.61l22.934 3.4801-8.8792 43.789-14.054-47.269z"/>
   <path id="path2181" fill="#b28f53" d="m390.79 288.29c-36.392-18.31-64.583-34.432-116.98-46.274-144.77-9.0281-207.8 3.9043-270.41 16.148 66.142 58.285 212.64 54.302 387.38 30.126z"/>
   <path id="path2183" fill="#4b3c21" d="m375.51 285.03c-33.807-17.009-54.008-28.156-102.68-39.157-123.62-7.8682-200.74 2.9417-258.12 13.199 86.167 31.317 265.02 30.851 360.8 25.958z"/>
   <path id="path2204" fill="#67522e" d="m160.8 261.18l0.735 5.5523 45.771 19.539 12.09 0.3931"/>
   <g fill="#7d6438">
    <path id="path1580" d="m264.83 287.51l-51.277-23.544-52.904-2.724 58.796 25.444c14.665 0.57761 30.017 0.70416 45.385 0.82483z"/>
    <path id="path2200" d="m49.492 316.19c3.8866 0.79947 301.52 16.354 309.5 15.9-8.5092 8.737-20.136 19.983-29.033 21.514-28.634 4.9295-120.62 10.977-221.59-3.4716-25.188-10.957-44.246-22.654-58.872-33.943z"/>
   </g>
   <path id="path1584" fill="#745c33" d="m20.281 282.48c5.6706 3.5933 354.43 26.224 356.23 26.031-5.4254 7.811-10.886 16.708-17.906 23.915-21.816 6.1466-259.49 13.659-309.11-16.236-13.493-10.415-22.401-24.991-29.21-33.71z"/>
   <path id="path1306" fill="#6e5831" d="m3.2193 258.14c72.218 28.871 217.19 40.014 387.54 30.351 0 0-5.033 7.177-14.197 20.371-56.606 17.901-334.3 1.1218-355.8-26.009-13.608-17.424-17.379-25.434-17.543-24.713z"/>
   <path id="path2193" fill="#43341d" d="m273.12 246s4.8071 21.74-7.9258 41.352c51.312 1.1326 109.93-2.3901 109.93-2.3901-30.26-16.159-66.083-31.938-102-38.962z"/>
   <g id="g3303" stroke-width=".759" fill="#4b3c21" transform="matrix(.98934 .37028 -.23113 1.5231 356.46 404.9)">
    <rect id="rect3294" transform="matrix(.96961 -.24464 -.12817 .99175 0 0)" height="4.9017" width="45.528" y="-102.78" x="-78.216"/>
    <path id="rect3298" d="m-62.665-82.8l44.145-11.138-3.8537-0.3374-45.471 10.696 5.1795 0.7794z"/>
    <path id="path3301" d="m-62.665-82.8l-0.6491 4.8664-4.264-0.8425-0.2664-4.8032 5.1795 0.7794z"/>
   </g>
  </g>
 </g>
</svg>
