<?xml version="1.0" encoding="utf-8"?>
<!-- Generator: Adobe Illustrator 19.0.0, SVG Export Plug-In . SVG Version: 6.00 Build 0)  -->
<svg version="1.1" id="Layer_1" xmlns="http://www.w3.org/2000/svg" xmlns:xlink="http://www.w3.org/1999/xlink" x="0px" y="0px"
	 viewBox="0 0 1280 800" style="enable-background:new 0 0 1280 800;" xml:space="preserve">
<style type="text/css">
	.st0{fill:none;}
	.st1{fill:#2F2672;}
	.st2{fill:#293487;}
	.st3{fill:#0F70B7;}
	.st4{fill:#2D2E84;}
	.st5{fill:#29235C;}
	.st6{fill:#1A5E98;}
	.st7{fill:#272873;}
	.st8{fill:#054A8D;}
	.st9{fill:#0B8E37;}
	.st10{fill:#2FAC66;}
	.st11{fill:#3AAA35;}
	.st12{fill:#01953D;}
	.st13{fill:#95C11F;}
	.st14{fill:#DEDC00;}
	.st15{fill:#94C21B;}
	.st16{fill:#38AA30;}
	.st17{fill:#DEDE00;}
	.st18{fill:#FFE909;}
	.st19{fill:#96C02D;}
	.st20{fill:#086936;}
	.st21{fill:#086E29;}
	.st22{fill:#E5D902;}
	.st23{fill:#92C223;}
	.st24{fill:#38AC31;}
	.st25{fill:#D9DC03;}
	.st26{fill:#0F71B6;}
	.st27{fill:#292E81;}
	.st28{fill:#2B265E;}
	.st29{fill:#009EE4;}
	.st30{fill:#13A59D;}
	.st31{fill:#056CB0;}
	.st32{fill:#2B2B84;}
	.st33{fill:#2BABF0;}
	.st34{fill:#921C85;}
	.st35{fill:#87348E;}
	.st36{fill:#98155A;}
	.st37{fill:#D6014D;}
	.st38{fill:#990F52;}
	.st39{fill:#EA0215;}
	.st40{fill:#EB2E2A;}
	.st41{fill:#E54E19;}
	.st42{fill:#F2AE30;}
	.st43{fill:#E64F1C;}
	.st44{fill:#D40A51;}
	.st45{fill:#E60618;}
	.st46{fill:#12A19B;}
	.st47{fill:#2DAAE1;}
	.st48{fill:#46BBEB;}
	.st49{fill:#292C75;}
	.st50{fill:#2B2E83;}
	.st51{fill:#0E6CB6;}
	.st52{fill:#328CCC;}
	.st53{fill:#2278A9;}
	.st54{fill:#4495CF;}
	.st55{fill:#372685;}
	.st56{fill:#CB1126;}
	.st57{fill:#E95A0D;}
	.st58{fill:#F6B331;}
	.st59{fill:#E72F29;}
	.st60{fill:#EB2E2C;}
	.st61{fill:#F9B233;}
	.st62{fill:#E94E1B;}
	.st63{fill:#F5EB1E;}
	.st64{fill:#FBAF37;}
	.st65{fill:#BE1523;}
	.st66{fill:#084687;}
	.st67{fill:#1171B7;}
	.st68{fill:#009FE3;}
	.st69{fill:#84C6D4;}
	.st70{fill:#0F70B8;}
	.st71{fill:#4CBBEA;}
	.st72{fill:#2A2873;}
	.st73{fill:#70C5DF;}
	.st74{fill:#2DA8DE;}
	.st75{fill:#41A0C7;}
	.st76{fill:#1F64AD;}
	.st77{fill:#429AD3;}
	.st78{fill:#2E7FC2;}
	.st79{fill:#EC9300;}
	.st80{fill:#F39201;}
	.st81{fill:#F19200;}
	.st82{fill:#F8B333;}
	.st83{fill:#F59100;}
	.st84{fill:#E95B0B;}
	.st85{fill:#311C76;}
	.st86{fill:#F7B431;}
	.st87{fill:#E94F1A;}
	.st88{fill:#EA5B0C;}
	.st89{fill:#F39202;}
	.st90{fill:#E7302A;}
	.st91{fill:#1B5F99;}
	.st92{fill:#72C7E5;}
	.st93{fill:#17507C;}
	.st94{fill:#432A19;}
	.st95{fill:#7E4F24;}
	.st96{fill:#A48B7B;}
	.st97{fill:#936037;}
	.st98{fill:#432B19;}
	.st99{fill:#393A38;}
	.st100{fill:#9A9A98;}
	.st101{fill:#888987;}
	.st102{fill:#38AD33;}
	.st103{fill:#DCDC00;}
	.st104{fill:#FFEE00;}
	.st105{fill:#DADD03;}
	.st106{fill:#0D8D35;}
	.st107{fill:#FAE91C;}
	.st108{fill:#354B9B;}
	.st109{fill:#2F4393;}
	.st110{fill:#0D72B7;}
	.st111{fill:#27348B;}
	.st112{fill:#2A235C;}
	.st113{fill:#8B8B8A;}
	.st114{fill:#DDDDDD;}
	.st115{fill:#CCCCCB;}
	.st116{fill:#383837;}
	.st117{fill:#217FC3;}
	.st118{fill:#EA4C1F;}
	.st119{fill:#0F6EB6;}
	.st120{fill:#683C10;}
</style>
<g id="XMLID_2_">
	<polygon id="XMLID_128_" class="st0" points="1001.1,119.8 1004,92.2 1055.2,132.5 1009.8,142.3 	"/>
	<polygon id="XMLID_12_" class="st1" points="154.1,686.9 142.5,716.2 101.3,648.1 	"/>
	<polygon id="XMLID_13_" class="st2" points="149.9,600.7 101.3,648.1 154.1,686.9 	"/>
	<polygon id="XMLID_15_" class="st3" points="241.3,552.7 200.6,630.7 149.9,600.7 	"/>
	<polygon id="XMLID_16_" class="st4" points="282.9,578.4 200.6,630.7 241.3,552.7 	"/>
	<polygon id="XMLID_17_" class="st5" points="195.6,496.1 149.9,600.7 241.3,552.7 	"/>
	<polygon id="XMLID_18_" class="st6" points="283,480.1 283,578.9 241.6,552.7 	"/>
	<polygon id="XMLID_10_" class="st3" points="236.4,485.4 282.7,480.1 241.3,552.7 195.6,496.1 	"/>
	<polygon id="XMLID_20_" class="st7" points="366.1,523.7 283,578.9 283,480.1 	"/>
	<polygon id="XMLID_19_" class="st8" points="239.1,384.2 195.6,496.1 236.4,485.4 282.7,480.1 	"/>
	<line id="XMLID_76_" class="st0" x1="365.7" y1="523.7" x2="285.8" y2="363.9"/>
	<polygon id="XMLID_21_" class="st7" points="258.7,372.6 285.8,363.9 282.7,480.1 239.1,384.2 	"/>
	<polygon id="XMLID_24_" class="st9" points="425.3,331.9 365.7,523.7 285.8,363.9 	"/>
	<polygon id="XMLID_25_" class="st10" points="448.5,461.2 425.3,331.9 365.7,523.7 	"/>
	<polygon id="XMLID_26_" class="st9" points="397.7,552.7 448.5,461.2 365.7,523.7 	"/>
	<polygon id="XMLID_27_" class="st11" points="465.5,570.2 448.5,461.2 397.7,552.7 	"/>
	<polygon id="XMLID_28_" class="st12" points="401.1,582.3 397.7,552.7 465.5,570.2 	"/>
	<polygon id="XMLID_29_" class="st13" points="394.8,659.3 465.5,570.2 401.1,582.3 	"/>
	<polygon id="XMLID_30_" class="st14" points="342,646.2 401.1,582.3 394.8,659.3 	"/>
	<polygon id="XMLID_31_" class="st15" points="341,674.3 393.8,659.3 341,646.2 	"/>
	<polygon id="XMLID_23_" class="st9" points="409.8,778.9 341.5,674.3 394.3,659.3 431.6,719.1 	"/>
	<polygon id="XMLID_33_" class="st11" points="455.8,748.8 431.6,719.1 409.8,778.9 	"/>
	<polygon id="XMLID_34_" class="st9" points="499.9,780 409.8,780 455.8,749.5 	"/>
	<polygon id="XMLID_35_" class="st16" points="515.4,764.1 499.9,779.4 455.8,748.8 	"/>
	<polygon id="XMLID_36_" class="st13" points="499.9,726.1 515.4,764.1 455.8,748.8 	"/>
	<polygon id="XMLID_32_" class="st17" points="462.6,722.7 499.9,726.1 455.8,748.8 431.6,719.1 	"/>
	<polygon id="XMLID_38_" class="st18" points="428.2,674.3 431.6,719.1 394.3,659.3 	"/>
	<polygon id="XMLID_39_" class="st19" points="455.8,646.2 428.2,674.3 394.3,659.3 	"/>
	<polygon id="XMLID_37_" class="st20" points="461.1,611.8 455.8,646.2 394.3,659.3 465.5,570.2 	"/>
	<polygon id="XMLID_41_" class="st9" points="518.8,600.7 455.8,646.2 465.5,570.2 	"/>
	<polygon id="XMLID_42_" class="st21" points="544.4,548.4 518.8,600.7 465.5,570.2 	"/>
	<polygon id="XMLID_40_" class="st10" points="505,511.1 544.4,548.4 465.5,570.2 448.5,461.2 	"/>
	<polygon id="XMLID_44_" class="st22" points="550.2,507 544.4,548.4 448.5,461.2 	"/>
	<polygon id="XMLID_45_" class="st23" points="510,398.7 550.2,507 448.5,461.2 	"/>
	<polygon id="XMLID_43_" class="st14" points="474.2,369.2 510,398.7 448.5,461.2 425.3,331.9 	"/>
	<polygon id="XMLID_47_" class="st24" points="368.6,247.2 285.8,363.9 425.3,331.9 	"/>
	<polygon id="XMLID_48_" class="st13" points="216.1,334.8 285.8,363.9 368.6,247.2 	"/>
	<polygon id="XMLID_49_" class="st25" points="226.6,359.5 239.1,384.2 258.7,372.6 285.8,363.9 216.1,334.8 	"/>
	<polygon id="XMLID_50_" class="st26" points="156,351.8 239.1,384.2 216.1,334.8 	"/>
	<polygon id="XMLID_51_" class="st27" points="149.7,384 239.8,384 156,351.6 	"/>
	<polygon id="XMLID_52_" class="st28" points="95.3,365.7 149.7,384.2 156,351.8 	"/>
	<polygon id="XMLID_53_" class="st29" points="106.5,344.2 95.3,365.7 156,351.8 	"/>
	<polygon id="XMLID_54_" class="st30" points="66.2,334.8 95.3,365.7 106.5,344.2 	"/>
	<polygon id="XMLID_55_" class="st31" points="69.5,312.7 66.2,334.8 106.5,344.2 	"/>
	<polygon id="XMLID_56_" class="st32" points="57.5,322.5 66.2,334.8 69.5,312.7 	"/>
	<polygon id="XMLID_57_" class="st33" points="66.2,277.8 69.5,312.7 57.5,322.5 	"/>
	<polygon id="XMLID_58_" class="st34" points="44.8,280.3 66.2,277.8 57.5,322.5 	"/>
	<polygon id="XMLID_59_" class="st35" points="65,236 65,278.1 44.3,280.3 	"/>
	<polygon id="XMLID_60_" class="st36" points="81,244.7 65,236 65,278.1 	"/>
	<polygon id="XMLID_61_" class="st37" points="125.7,207 81.5,244.7 65.5,236 	"/>
	<polygon id="XMLID_62_" class="st38" points="116.3,193.5 65.5,236 125.7,207 	"/>
	<polygon id="XMLID_63_" class="st39" points="207.5,172.5 125.7,207 116.3,193.5 	"/>
	<polygon id="XMLID_64_" class="st40" points="174.8,207 207.5,172.5 125.7,207 	"/>
	<polygon id="XMLID_65_" class="st41" points="237.6,211.3 207.5,172.5 174.8,207 	"/>
	<polygon id="XMLID_66_" class="st42" points="252.9,184.4 237.6,211.3 207.5,172.5 	"/>
	<polygon id="XMLID_67_" class="st43" points="298.7,236 237.6,211.3 252.9,184.4 	"/>
	<polygon id="XMLID_68_" class="st44" points="232.9,240 237.6,211.3 298.7,236 	"/>
	<polygon id="XMLID_46_" class="st45" points="204.2,225.7 232.9,240 237.6,211.3 174.8,207 	"/>
	<polygon id="XMLID_70_" class="st46" points="441,230.9 368.6,247.2 425.3,331.9 	"/>
	<polygon id="XMLID_71_" class="st47" points="530.4,247.2 425.3,331.9 441,230.9 	"/>
	<polygon id="XMLID_69_" class="st3" points="534,295.6 530.4,247.2 425.3,331.9 537.6,345.7 	"/>
	<polygon id="XMLID_74_" class="st48" points="696,236 530.4,247.2 620.4,305.5 	"/>
	<polygon id="XMLID_75_" class="st7" points="575.4,452.8 637.9,504.8 550.2,507 510,398.7 	"/>
	<polygon id="XMLID_78_" class="st49" points="683.8,537.5 638,504.8 638,561.4 	"/>
	<polygon id="XMLID_79_" class="st50" points="704.7,436.5 637.9,504.8 683.6,537.5 	"/>
	<polygon id="XMLID_77_" class="st8" points="613.2,403.8 510,398.7 637.9,504.8 704.7,436.5 	"/>
	<polygon id="XMLID_80_" class="st51" points="567.4,368.9 613.2,403.8 510,398.7 537.6,345.7 	"/>
	<polygon id="XMLID_81_" class="st52" points="616.8,353.7 620.4,305.5 537.6,345.7 613.2,403.8 	"/>
	<polygon id="XMLID_82_" class="st47" points="664,371.1 704.7,436.5 613.2,403.8 620.4,305.5 	"/>
	<polygon id="XMLID_84_" class="st53" points="765,483.7 683.6,537.5 704.7,436.5 	"/>
	<polygon id="XMLID_85_" class="st54" points="724.3,565.1 765,483.7 683.6,537.5 	"/>
	<polygon id="XMLID_86_" class="st3" points="780.3,591.7 765,483.7 724.3,565.1 	"/>
	<polygon id="XMLID_87_" class="st55" points="806.4,600.7 765,483.7 780.3,591.7 	"/>
	<polygon id="XMLID_88_" class="st14" points="897.9,586.1 855.1,469.2 806.4,600.7 	"/>
	<polygon id="XMLID_83_" class="st13" points="806.4,476.5 855.1,469.2 806.4,600.7 765,483.7 	"/>
	<polygon id="XMLID_90_" class="st13" points="924.1,452.8 855.1,469.2 897.9,586.1 	"/>
	<polygon id="XMLID_91_" class="st56" points="937.9,578.9 924.1,452.8 897.9,586.1 	"/>
	<polygon id="XMLID_92_" class="st57" points="982.2,496.1 924.1,452.8 937.9,578.9 	"/>
	<polygon id="XMLID_93_" class="st58" points="953.1,354.7 924.1,452.8 982.2,496.1 	"/>
	<polygon id="XMLID_94_" class="st59" points="1033.8,443.8 982.2,496.1 953.1,354.7 	"/>
	<polygon id="XMLID_95_" class="st60" points="1060.6,349.3 1033.8,443.8 1108.6,384.2 	"/>
	<polygon id="XMLID_89_" class="st61" points="1001.1,349 1060.6,349 1033.8,443.6 953.1,354.4 	"/>
	<polygon id="XMLID_97_" class="st62" points="1123.1,331.9 1060.6,349.3 1108.6,384.2 	"/>
	<polygon id="XMLID_98_" class="st14" points="828.2,354.7 765,483.7 855.1,469.2 	"/>
	<polygon id="XMLID_96_" class="st63" points="879.8,403.8 924.1,452.8 855.1,469.2 828.2,354.7 	"/>
	<polygon id="XMLID_99_" class="st62" points="895,355 953.1,355 924.1,452.8 828.2,354.6 	"/>
	<polygon id="XMLID_101_" class="st64" points="1115.1,299.9 1060.6,349.3 1123.1,331.9 	"/>
	<polygon id="XMLID_102_" class="st62" points="1022.1,281.4 1115.1,299.9 1060.6,349.3 	"/>
	<polygon id="XMLID_100_" class="st65" points="985.1,318.3 1022.1,281.4 1060.6,349.3 953.1,355.1 	"/>
	<polygon id="XMLID_104_" class="st66" points="1139.1,339.9 1115.1,299.9 1123.1,331.9 	"/>
	<polygon id="XMLID_105_" class="st67" points="1184.1,334.1 1139.1,339.9 1115.1,299.9 	"/>
	<polygon id="XMLID_106_" class="st68" points="1191.7,274.9 1184.1,334.1 1115.1,299.9 	"/>
	<polygon id="XMLID_107_" class="st69" points="1127.1,252.7 1115.1,299.9 1191.7,274.9 	"/>
	<polygon id="XMLID_108_" class="st70" points="1224.8,248.4 1191.7,274.9 1127.1,252.7 	"/>
	<polygon id="XMLID_109_" class="st47" points="1236.1,179 1224.8,248.4 1107.9,140.9 	"/>
	<polygon id="XMLID_110_" class="st71" points="1167.8,138.7 1236.1,179 1107.9,140.9 	"/>
	<polygon id="XMLID_111_" class="st72" points="1157.6,119.4 1167.8,138.7 1107.9,140.9 	"/>
	<polygon id="XMLID_112_" class="st73" points="1101.3,91.8 1107.9,140.9 1157.6,119.4 	"/>
	<polygon id="XMLID_113_" class="st74" points="1055.2,132.5 1107.9,140.9 1101.3,91.8 	"/>
	<polygon id="XMLID_114_" class="st75" points="1046.8,152.1 1107.9,140.9 1055.2,132.5 	"/>
	<polygon id="XMLID_115_" class="st76" points="1034.1,219.3 1107.9,140.9 1046.8,152.1 	"/>
	<polygon id="XMLID_103_" class="st77" points="1118.4,205.5 1107.9,140.9 1224.8,248.4 1127.1,252.7 	"/>
	<polygon id="XMLID_116_" class="st78" points="1077.3,234.6 1127.1,252.7 1107.9,140.9 1034.1,219.3 	"/>
	<polygon id="XMLID_118_" class="st79" points="1009.8,142.3 1055.2,132.5 1046.8,152.1 	"/>
	<polygon id="XMLID_117_" class="st61" points="1016.7,175.4 1009.8,142.3 1046.8,152.1 1034.1,219.3 	"/>
	<polygon id="XMLID_119_" class="st62" points="930.3,210.2 1009.8,142.3 1016.7,175.4 1034.1,219.3 	"/>
	<polygon id="XMLID_121_" class="st80" points="906.3,144.5 930.3,210.2 1009.8,142.3 	"/>
	<polygon id="XMLID_120_" class="st62" points="1081.5,30.5 1101.3,91.8 1055.2,132.5 1046.8,67.5 	"/>
	<polygon id="XMLID_123_" class="st81" points="1041.8,17.7 1081.5,30.5 1046.8,67.5 	"/>
	<polygon id="XMLID_124_" class="st82" points="1004.7,91.8 1046.8,67.5 1041.8,17.7 	"/>
	<polygon id="XMLID_125_" class="st83" points="984,24.6 1041.8,17.7 1004.7,91.8 	"/>
	<polygon id="XMLID_126_" class="st84" points="906.3,76.6 984,24.6 1004.7,91.8 	"/>
	<polygon id="XMLID_122_" class="st80" points="904.1,109.3 906.3,76.6 1004.7,91.8 906.3,144.5 	"/>
	<polygon id="XMLID_127_" class="st85" points="1025.8,112.5 1055.2,132.5 1046.8,67.5 1004,92.2 	"/>
	<polygon id="XMLID_129_" class="st86" points="842.4,95.1 906.3,76.6 904.1,109.3 906.3,144.5 	"/>
	<polygon id="XMLID_132_" class="st87" points="828.9,127.4 906.3,144.5 842.4,95.1 	"/>
	<polygon id="XMLID_133_" class="st80" points="842.4,222.2 906.3,144.5 828.9,127.4 	"/>
	<polygon id="XMLID_131_" class="st61" points="893.2,215 930.3,210.2 906.3,144.5 842.4,222.2 	"/>
	<polygon id="XMLID_135_" class="st61" points="789.7,146.7 828.9,127.4 842.4,222.2 	"/>
	<polygon id="XMLID_136_" class="st80" points="696,236 789.7,146.7 842.4,222.2 	"/>
	<polygon id="XMLID_137_" class="st88" points="739.6,333.7 696,236 842.4,222.2 	"/>
	<polygon id="XMLID_134_" class="st89" points="1068.6,268.3 1127.1,252.7 1115.1,299.9 1022.1,281.4 	"/>
	<polygon id="XMLID_138_" class="st61" points="1028.3,248.4 1022.1,281.4 1127.1,252.7 1034.1,219.3 	"/>
	<polygon id="XMLID_139_" class="st80" points="978.6,250.4 1022.1,281.4 1034.1,219.3 930.3,210.2 	"/>
	<polygon id="XMLID_141_" class="st90" points="940.4,278 930.3,210.2 978.6,250.4 1022.1,281.4 953.1,355.1 	"/>
	<polygon id="XMLID_142_" class="st65" points="892.1,281.4 953.1,355.1 940.4,278 930.3,210.2 842.4,222.2 	"/>
	<polygon id="XMLID_140_" class="st80" points="889.6,355 953.1,355 842.4,222.1 828.2,354.6 	"/>
	<polygon id="XMLID_143_" class="st90" points="787.5,342.4 828.2,354.7 842.4,222.2 739.6,333.7 	"/>
	<polygon id="XMLID_144_" class="st91" points="680.7,319.9 739.6,333.7 696,236 620.4,305.5 	"/>
	<polygon id="XMLID_145_" class="st92" points="769.2,393.6 828.2,354.7 765,483.7 704.7,436.5 	"/>
	<polygon id="XMLID_147_" class="st53" points="724.3,374.8 739.6,333.7 787.5,342.4 828.2,354.7 704.7,436.5 	"/>
	<polygon id="XMLID_148_" class="st93" points="655.3,358.1 620.4,305.5 739.6,333.7 724.3,374.8 704.7,436.5 	"/>
	<polygon id="XMLID_149_" class="st94" points="671.3,722.7 724.3,565.1 683.6,537.5 	"/>
	<polygon id="XMLID_150_" class="st95" points="739.6,711.8 724.3,565.1 671.3,722.7 	"/>
	<polygon id="XMLID_152_" class="st96" points="724.3,742.3 739.6,711.8 671.3,722.7 	"/>
	<polygon id="XMLID_153_" class="st97" points="694.8,780.3 724.3,742.3 671.3,722.7 	"/>
	<polygon id="XMLID_154_" class="st98" points="775.4,782.3 724.3,742.3 694.8,780.3 	"/>
	<polygon id="XMLID_155_" class="st99" points="792.4,765.3 724.3,742.3 775.4,782.3 	"/>
	<polygon id="XMLID_156_" class="st100" points="770.8,736.3 724.3,742.3 792.4,765.3 	"/>
	<polygon id="XMLID_151_" class="st101" points="756.3,725.4 739.6,711.8 724.3,742.3 770.8,736.3 	"/>
	<polygon id="XMLID_158_" class="st102" points="850,782 877.8,738.7 934.5,782 	"/>
	<polygon id="XMLID_159_" class="st103" points="947.6,746.7 934.5,782.3 877.8,738.9 	"/>
	<polygon id="XMLID_160_" class="st104" points="886.8,707.2 877.8,738.9 947.6,746.7 	"/>
	<polygon id="XMLID_161_" class="st105" points="822.1,735 886.8,707.2 877.8,738.9 	"/>
	<polygon id="XMLID_157_" class="st106" points="836.4,757.8 850,782.3 877.8,738.9 822.1,735 	"/>
	<polygon id="XMLID_163_" class="st107" points="820.9,706.7 886.8,707.2 822.6,735 	"/>
	<polygon id="XMLID_162_" class="st13" points="860.2,643.9 897.9,586.1 886.8,707.2 820.9,706.7 	"/>
	<polygon id="XMLID_164_" class="st11" points="813.9,649.8 806.4,600.7 897.9,586.1 820.9,706.7 	"/>
	<polygon id="XMLID_165_" class="st5" points="590.5,533.1 638,561.4 638,504.8 592.9,502.4 550.3,507 	"/>
	<polygon id="XMLID_166_" class="st5" points="320.7,504.8 365.7,523.7 285.8,363.9 275.2,413.3 282.7,480.1 	"/>
	<polygon id="XMLID_22_" class="st108" points="174,659 200.6,630.6 150,600.7 150,645.7 154.2,686.9 	"/>
	<polygon id="XMLID_14_" class="st109" points="95.3,686.9 101.3,648.1 128.9,682.1 142.5,716.2 90.2,716.9 	"/>
	<polygon id="XMLID_4_" class="st110" points="129,745.1 142.5,716.2 116.3,713.3 90.2,716.9 	"/>
	<polygon id="XMLID_6_" class="st111" points="73.5,760.5 129,745.1 90.2,716.9 	"/>
	<polygon id="XMLID_7_" class="st112" points="140.3,781.9 129,745.1 73.5,760.5 	"/>
	<polygon id="XMLID_9_" class="st113" points="173,744.5 129,745.1 172.6,772.8 	"/>
	<polygon id="XMLID_11_" class="st114" points="159.2,726.1 129,745.1 173,744.5 	"/>
	<polygon id="XMLID_5_" class="st115" points="150.8,721.6 142.5,716.2 129,745.1 159.2,726.1 	"/>
	<polygon id="XMLID_167_" class="st116" points="155.6,778.4 172.6,772.8 129,745.1 132.1,763.5 140.3,781.9 	"/>
	<polygon id="XMLID_72_" class="st50" points="481,331 425.8,331 510,398.3 537.6,345 	"/>
	<path id="XMLID_8_" class="st50" d="M525.3,296.4"/>
	<polygon id="XMLID_168_" class="st117" points="525.3,291.9 537.6,345.7 579,331.9 620.4,305.5 530.4,247.2 	"/>
	<polygon id="XMLID_130_" class="st118" points="958,144 1011,142.3 1011,119.4 1004.6,91.9 906.3,144 	"/>
	<polygon id="XMLID_73_" class="st119" points="1006.9,116.3 1004,92.2 1029.6,112.4 1055.2,132.5 1029.6,138.7 1009.8,142.3 	"/>
	<polygon id="XMLID_146_" class="st120" points="739.6,711.8 780.3,591.7 724.3,565.1 729.4,659.7 	"/>
</g>
</svg>
